<?xml version="1.0" encoding="UTF-8"?> <!-- Generator: Adobe Illustrator 22.0.0, SVG Export Plug-In . SVG Version: 6.00 Build 0) --> <svg xmlns="http://www.w3.org/2000/svg" xmlns:xlink="http://www.w3.org/1999/xlink" id="Layer_1" x="0px" y="0px" viewBox="0 0 251 300" style="enable-background:new 0 0 251 300;" xml:space="preserve"> <style type="text/css"> .st0{fill:#BB191F;} </style> <g id="XMLID_410_"> <g id="XMLID_302_"> <polygon id="XMLID_403_" class="st0" points="243.8,134 138.7,188.4 229.1,126.6 228,125 134,189.3 239.7,86.6 238.4,85.3 133,187.7 203.1,92.7 201.5,91.6 134.8,182.1 196.7,75.1 195.1,74.1 131.8,183.5 163.9,106.2 162.1,105.5 131.4,179.7 172.9,38.6 171.1,38 129,181.1 151.4,47.5 149.6,47.2 126.4,185 126.4,5.8 124.6,5.8 124.6,185 101.4,47.2 99.6,47.5 122,181.1 79.9,38 78.1,38.6 119.6,179.7 88.9,105.5 87.1,106.2 119.2,183.5 55.9,74.1 54.3,75.1 116.2,182.1 49.5,91.6 47.9,92.7 118,187.7 12.6,85.3 11.3,86.6 117,189.3 23,125 21.9,126.6 112.3,188.4 7.2,134 6.4,135.6 125.5,197.3 244.6,135.6 "></polygon> <path id="XMLID_322_" d="M82.3,223.3c3.9,0,6.7,2.4,7.3,6.2l1.9-0.3c-0.7-4.7-4.3-7.8-9.2-7.8c-5.5,0-9.2,4-9.2,10v5.7 c0,6,3.7,10,9.2,10c4.8,0,8.4-3.1,9.2-7.8l-1.9-0.3c-0.6,3.8-3.4,6.2-7.3,6.2c-4.5,0-7.4-3.2-7.4-8.1v-5.7 C74.9,226.5,77.8,223.3,82.3,223.3"></path> <rect id="XMLID_319_" x="124.6" y="221.6" width="1.9" height="25.3"></rect> <polygon id="XMLID_318_" points="155.9,221.6 147.2,232.6 138.5,221.6 137.1,221.6 137.1,246.8 138.9,246.8 138.9,225.1 147.2,235.7 155.5,225.1 155.5,246.8 157.4,246.8 157.4,221.6 "></polygon> <path id="XMLID_315_" d="M174.7,233.3l-2-0.4c-5-1-5.6-3.1-5.5-5.1c0-1.2,0.6-2.3,1.5-3.1c1.1-1,2.7-1.5,4.7-1.4 c3.3,0.1,5.6,1.7,6.5,4.5l1.8-0.6c-1.1-3.6-4.1-5.7-8.2-5.8c-2.4-0.1-4.5,0.6-6,1.8c-1.3,1.1-2.1,2.7-2.1,4.4c-0.1,3.7,2.2,6,7,7 l2,0.4c5.3,1.1,5.9,3.3,5.9,5.4c0,1.5-0.6,2.7-1.8,3.5c-1.2,0.9-2.9,1.3-5,1.2c-3.5-0.1-6.1-1.9-7.2-4.9l-1.8,0.6 c1.3,3.8,4.6,6.1,8.9,6.2c0.2,0,0.3,0,0.5,0c2.3,0,4.2-0.6,5.7-1.6c1.6-1.2,2.5-2.9,2.5-5C182.2,235.5,177.9,234,174.7,233.3"></path> <path id="XMLID_310_" d="M105.6,221.6l-9.1,25l1.8,0.6l2.8-7.6h11.3l2.8,7.6l1.8-0.6l-9.1-25H105.6z M101.7,237.7l4.9-13.6 l4.9,13.6H101.7z"></path> <path id="XMLID_309_" d="M82.7,277.6l-2-0.4c-5-1-5.6-3.1-5.5-5.1c0-1.2,0.6-2.3,1.5-3.1c1.1-1,2.7-1.4,4.7-1.4 c3.3,0.1,5.6,1.7,6.5,4.5l1.8-0.6c-1.1-3.6-4.1-5.7-8.2-5.8c-2.4-0.1-4.5,0.6-6,1.8c-1.3,1.1-2.1,2.7-2.1,4.4c-0.1,3.7,2.2,6,7,7 l2,0.4c5.3,1.1,5.9,3.3,5.9,5.4c-0.1,3.1-2.6,4.9-6.7,4.7c-3.5-0.1-6.1-1.9-7.2-4.9l-1.8,0.6c1.3,3.8,4.6,6.1,8.9,6.2 c0.2,0,0.3,0,0.4,0c4.9,0,8.1-2.5,8.2-6.6C90.2,279.8,85.9,278.3,82.7,277.6"></path> <path id="XMLID_308_" d="M106.5,267.5c3.9,0,6.7,2.4,7.3,6.2l1.9-0.3c-0.7-4.7-4.3-7.8-9.2-7.8c-5.5,0-9.2,4-9.2,10v5.7 c0,6,3.7,10,9.2,10c4.8,0,8.4-3.1,9.2-7.8l-1.9-0.3c-0.6,3.8-3.4,6.2-7.3,6.2c-4.5,0-7.4-3.2-7.4-8.1v-5.7 C99.1,270.7,102,267.5,106.5,267.5"></path> <rect id="XMLID_307_" x="178.5" y="265.8" width="1.9" height="25.3"></rect> <polygon id="XMLID_306_" points="143.4,265.8 134.7,276.9 126,265.8 124.6,265.8 124.6,291.1 126.4,291.1 126.4,269.4 134.7,279.9 143,269.4 143,291.1 144.9,291.1 144.9,265.8 "></polygon> <path id="XMLID_303_" d="M160.8,265.8l-9.1,25l1.8,0.6l2.8-7.6h11.3l2.8,7.6l1.8-0.6l-9.1-25H160.8z M156.9,281.9l4.9-13.6 l4.9,13.6H156.9z"></path> </g> </g> </svg> 